<?xml version="1.0" encoding="UTF-8"?>
<svg id="Capa_2" data-name="Capa 2" xmlns="http://www.w3.org/2000/svg" viewBox="0 0 82.8 95.77">
  <defs>
    <style>
      .cls-1 {
        fill: #99D95E;
        stroke: #99D95E;
        stroke-miterlimit: 10;
      }
    </style>
  </defs>
  <g id="Capa_1-2" data-name="Capa 1">
    <polygon class="cls-1" points=".5 24.03 28.04 8.49 55.85 24.03 55.85 37.12 28.18 21.3 .5 37.12 .5 24.03"/>
    <polygon class="cls-1" points="58.31 22.8 58.31 54.29 68.67 48.02 68.67 16.12 41.74 .58 30.77 7.12 58.31 22.8"/>
    <polygon class="cls-1" points="71.39 18.03 82.3 24.57 82.3 55.93 55.85 71.75 44.13 65.47 71.12 49.66 71.39 18.03"/>
    <polygon class="cls-1" points="82.3 59.2 82.3 71.75 55.85 87.29 26.95 71.75 26.95 59.2 55.85 74.47 82.3 59.2"/>
    <polygon class="cls-1" points="13.86 79.65 41.74 95.19 52.31 88.92 24.22 73.25 25.04 41.21 13.86 47.48 13.86 79.65"/>
    <polygon class="cls-1" points=".5 39.84 28.18 24.3 39.22 30.57 10.86 46.11 11.41 78.02 .5 71.75 .5 39.84"/>
  </g>
</svg>
